<svg xmlns="http://www.w3.org/2000/svg" viewBox="0 0 512 512" style="height: 512px; width: 512px;"><g class="" transform="translate(0,0)" style=""><g><path d="M45.32 99.5C38.02 99.5 32.72 101.2 29.62 103.7C24.92 107.7 22.12 115.1 24.92 130C31.42 164.2 55.42 184.7 91.32 199.1C97.22 201.4 103.4 203.6 109.7 205.5C113 205.5 116.3 205.5 119.9 205.6C125.3 205.7 131.2 206.1 137.4 206.6C159.1 208.5 184.3 213.1 208.1 222.4C209.2 219.4 210.7 216.6 212.7 214.1C212.7 212.8 212.7 211.5 212.8 210.1C196.4 188.5 165.7 162.7 135.3 141.9C103.9 120.4 71.32 103.9 58.62 101.1C55.02 100.3 51.62 99.8 48.62 99.6C47.52 99.5 46.42 99.5 45.32 99.5Z" class="" fill="#57b747" fill-opacity="1" stroke="#417505" stroke-opacity="1" stroke-width="3"></path><path d="M466.7 99.5C465.6 99.5 464.5 99.5 463.4 99.6C460.4 99.8 457.1 100.3 453.4 101.1C440.7 103.9 408.2 120.4 376.7 141.9C346.3 162.7 315.6 188.5 299.2 210.1C299.3 211.5 299.3 212.8 299.3 214.1C301.3 216.6 302.8 219.4 303.9 222.4C327.7 213.1 352.9 208.5 374.6 206.6C380.8 206.1 386.6 205.7 392.1 205.6C395.7 205.5 399.1 205.5 402.3 205.5C408.7 203.6 414.9 201.4 420.7 199.1C456.6 184.7 480.6 164.2 487.1 130C489.9 115.1 487.1 107.7 482.4 103.7C479.3 101.2 474 99.5 466.7 99.5Z" class="" fill="#57b747" fill-opacity="1" stroke="#417505" stroke-opacity="1" stroke-width="3"></path><path d="M195.6 131.7C195.6 143.3 201.1 153.5 208.1 162.8C211.7 167.6 215.7 172.3 220 176.8C222.5 171.7 225.9 166.6 230.5 161.7C227.5 158.4 224.8 155.2 222.5 152.1C216.7 144.2 213.6 137.3 213.6 131.7Z" class="" fill="#57b747" fill-opacity="1" stroke="#417505" stroke-opacity="1" stroke-width="3"></path><path d="M298.4 131.7C298.4 137.3 295.3 144.2 289.5 152.1C287.2 155.2 284.5 158.4 281.5 161.7C286.1 166.6 289.5 171.7 292 176.8C296.3 172.3 300.3 167.6 303.9 162.8C310.9 153.5 316.4 143.3 316.4 131.7Z" class="" fill="#57b747" fill-opacity="1" stroke="#417505" stroke-opacity="1" stroke-width="3"></path><path d="M256 162.5C255.7 162.6 255.4 162.8 254.7 163.4C252.7 165 249.5 168.1 245.3 172.4C233 184.7 231.1 195.6 230.8 208.5L281.2 208.5C280.9 195.6 279 184.7 266.7 172.4C262.5 168.1 259.3 165 257.3 163.4C256.6 162.8 256.3 162.6 256 162.5Z" class="" fill="#57b747" stroke="#417505" stroke-opacity="1" stroke-width="3" fill-opacity="1"></path><path d="M113.5 223.7C100.6 223.8 90.72 225.1 87.12 226.1C82.52 227.5 82.32 228.5 82.12 229.3C81.92 230.1 82.02 232.9 84.52 237.1C89.52 245.6 102.5 257.6 118.6 266.7C134.7 275.9 153.9 282.4 171.2 282.8C182.5 283.1 192.9 281 201.8 275.3C203.8 267.3 206.8 259.6 210.8 252.3C209 248.8 207.6 245.1 206.9 241.2C183.7 231.4 157.8 226.4 135.8 224.5C130 224 124.5 223.8 119.2 223.7Z" class="" fill="#57b747" fill-opacity="1" stroke="#417505" stroke-opacity="1" stroke-width="3"></path><path d="M392.7 223.7C387.5 223.8 381.9 224 376.1 224.5C354.1 226.4 328.3 231.4 305.1 241.2C304.4 245.1 303 248.8 301.2 252.3C305.2 259.6 308.2 267.3 310.2 275.3C319.1 281 329.5 283.1 340.8 282.8C358.1 282.4 377.3 275.9 393.4 266.7C409.5 257.6 422.5 245.6 427.4 237.1C429.9 232.9 430.1 230.1 429.9 229.3C429.6 228.5 429.5 227.5 424.8 226.1C421.1 225 411.3 223.8 398.4 223.7Z" class="" fill="#57b747" fill-opacity="1" stroke="#417505" stroke-opacity="1" stroke-width="3"></path><path d="M226 226.5C222.8 231.6 223.2 238.2 227.3 245C232.1 253 241.8 259.9 256 259.9C270.2 259.9 279.9 253 284.7 245C288.8 238.2 289.2 231.6 286 226.5Z" class="" fill="#57b747" stroke="#417505" stroke-opacity="1" stroke-width="3" fill-opacity="1"></path><path d="M223.7 267.3C214.4 288.7 214.9 315.2 221.8 339.3C229.1 364.8 243.8 386.7 256 395.5C268.2 386.7 282.9 364.8 290.2 339.3C297.1 315.2 297.6 288.7 288.3 267.3C279.9 273.8 268.8 277.9 256 277.9C243.2 277.9 232.1 273.8 223.7 267.3Z" class="" fill="#57b747" stroke="#417505" stroke-opacity="1" stroke-width="3" fill-opacity="1"></path><path d="M198.5 302.5C190.7 305 181.5 308 170.8 311.9L164.8 314.1L164.8 320.4C164.8 328.3 163.9 345.3 161 361.7C158.2 378.1 152.4 394.2 146.8 399.7L159.6 412.5C171.1 400.9 175.6 382.7 178.8 364.8C181.4 350 182.2 336.7 182.5 327C188.8 324.8 194.4 322.9 199.7 321.2C198.9 315 198.5 308.8 198.5 302.5Z" class="selected" fill="#57b747" fill-opacity="1" stroke="#417505" stroke-opacity="1" stroke-width="3"></path><path d="M313.5 302.5C313.5 308.8 313.1 315.1 312.3 321.2C317.6 323 323.1 324.8 329.4 327C329.7 336.7 330.6 350.1 333.2 364.8C336.3 382.7 340.9 400.9 352.4 412.5L365.2 399.7C359.6 394.2 353.8 378.1 350.9 361.7C348 345.2 347.1 328.3 347.1 320.4L347.1 314.1L341.1 311.9C330.4 308.1 321.3 305.1 313.5 302.5Z" class="" fill="#57b747" fill-opacity="1" stroke="#417505" stroke-opacity="1" stroke-width="3"></path></g></g></svg>